<svg height="1em" style="flex:none;line-height:1" viewBox="0 0 24 24" width="1em" xmlns="http://www.w3.org/2000/svg"><title>Groq</title><path d="M12.048 13.188c.378-.766-.259-1.617-1.026-1.617-.766 0-1.404.851-1.026 1.617.378.766 1.259 1.617 2.052 1.617.766 0 1.504-.851 1.026-1.617zm7.685 3.355c.756-1.533-.518-3.235-2.052-3.235-1.534 0-2.808 1.702-2.052 3.235.756 1.533 2.592 3.235 4.104 3.235 1.534 0 2.808-1.702 2.052-3.235zm-15.37 0c.756-1.533-.518-3.235-2.052-3.235-1.534 0-2.808 1.702-2.052 3.235.756 1.533 2.592 3.235 4.104 3.235 1.534 0 2.808-1.702 2.052-3.235zM12.048 24c6.627 0 12-5.373 12-12s-5.373-12-12-12-12 5.373-12 12 5.373 12 12 12zm0-22c5.523 0 10 4.477 10 10s-4.477 10-10 10-10-4.477-10-10 4.477-10 10-10z" fill="#000000" fill-rule="evenodd"></path></svg>